<svg version="1.0" xmlns="http://www.w3.org/2000/svg" width="351.126" height="400.001" viewBox="0 0 263.344 300.001"><path fill="#FF444F" d="M229.582 17.412c-9.019 1.206-34.341 5.691-38.826 6.849-2.17.579-2.46.82-3.039 2.556-.627 1.833-7.187 34.486-12.203 60.579l-2.556 13.312-4.823.289c-2.701.145-10.273.386-16.929.531-16.736.386-33.521 1.158-38.103 1.688-14.711 1.833-29.614 8.103-42.878 17.99-4.727 3.569-16.206 14.662-20.161 19.582-12.299 15.241-17.894 30.097-22.669 60.338-1.929 12.203-1.447 21.318 1.64 32.749 4.63 17.026 14.132 29.566 29.566 38.875 11.769 7.09 21.704 8.585 58.843 8.633 17.026.048 20.498-.096 25.08-.868 15.531-2.556 28.987-9.984 41.142-22.669 6.559-6.849 12.733-16.833 15.241-24.646 1.158-3.666 4.293-20.016 12.781-66.56 19.437-106.592 26.527-147.444 25.949-148.939-.338-.916-2.701-1.013-8.055-.289zM164.47 150.917c0 .675-6.463 36.608-8.971 49.968-3.955 20.981-4.196 21.704-9.116 26.19-5.836 5.354-11.624 6.849-26.576 6.849-18.328.048-26.045-1.929-32.894-8.441-3.81-3.617-6.222-7.765-8.055-13.987-1.109-3.762-1.254-4.92-1.013-8.441.386-5.691 2.412-16.881 3.955-21.752 2.99-9.55 8.344-16.688 18.376-24.453 4.775-3.714 10.514-5.257 22.09-5.836 10.659-.579 42.203-.627 42.203-.096z"/></svg>